<svg xmlns="http://www.w3.org/2000/svg" xmlns:xlink="http://www.w3.org/1999/xlink" id="Layer_1" version="1.1" viewBox="64.31 97.13 451.18 379.62">
  <!-- Generator: Adobe Illustrator 29.4.0, SVG Export Plug-In . SVG Version: 2.1.0 Build 152)  -->
  <defs>
    <style>
      .st0 {
        fill: url(#linear-gradient);
      }

      .st1 {
        display: none;
      }
    </style>
    <linearGradient id="linear-gradient" x1="100.3" y1="222.78" x2="269.55" y2="125.05" gradientTransform="translate(0 576) scale(1 -1)" gradientUnits="userSpaceOnUse">
      <stop offset=".2" stop-color="#a338ff"/>
      <stop offset=".28" stop-color="#a93eff"/>
      <stop offset=".75" stop-color="#ca64ff"/>
      <stop offset="1" stop-color="#d773ff"/>
    </linearGradient>
  </defs>
  <g>
    <path id="Layer_1-2" d="M481.52,466.95h0c-64.72,26.94-139.02-3.69-165.96-68.4h0L194.16,106.91h0c64.72-26.94,139.02,3.69,165.96,68.4l121.4,291.64h0Z"/>
    <path id="Layer_1-21" class="st0" d="M237.51,412.66c-6.73-16.16-12.23-32.75-17.54-49.39-10.52-34.13-46.72-53.27-80.85-42.75s-53.27,46.72-42.75,80.85c.83,2.71,1.85,5.36,3.03,7.93,2.47,5.6,5.72,10.82,9.65,15.52,34.64,47.29,97.16,64.7,151.26,42.13l-22.8-54.3h0Z"/>
  </g>
  <g class="st1">
    <path d="M116.28,419.01h-4.06v-11.46h3.66c.7,0,1.31.07,1.82.21.51.13.92.33,1.25.59.33.25.58.57.73.94.16.37.24.78.24,1.25h0c0,.28-.04.55-.13.82-.09.26-.23.5-.4.72-.18.23-.41.43-.68.6-.27.18-.58.33-.94.44h0c.83.16,1.46.46,1.89.9s.64,1.02.64,1.73h0c0,.49-.09.93-.27,1.33-.17.4-.43.74-.78,1.03s-.77.51-1.26.67c-.5.15-1.07.23-1.71.23h0ZM116.25,413.79h-2.48v3.99h2.48c.45,0,.83-.05,1.14-.15.32-.1.58-.24.79-.43s.36-.41.45-.66.14-.53.14-.83h0c0-.59-.21-1.06-.62-1.41-.42-.34-1.05-.51-1.9-.51h0ZM113.77,408.77v3.91h2.05c.44,0,.82-.05,1.14-.14s.58-.23.79-.4c.21-.17.37-.38.47-.62s.15-.51.15-.8h0c0-.67-.2-1.16-.6-1.48-.41-.31-1.04-.47-1.89-.47h-2.11ZM127.45,414.23h-1.17v4.78h-1.55v-11.46h3.24c.73,0,1.35.07,1.88.22s.97.36,1.31.63c.35.28.6.62.77,1.01.16.39.24.83.24,1.31h0c0,.41-.06.79-.19,1.14s-.31.67-.55.95c-.25.28-.54.52-.89.71-.35.2-.75.35-1.19.45h0c.19.11.36.28.51.49h0l3.35,4.55h-1.38c-.28,0-.49-.11-.62-.33h0l-2.98-4.09c-.09-.13-.19-.22-.3-.28-.11-.05-.27-.08-.48-.08h0ZM126.28,408.77v4.33h1.62c.45,0,.85-.05,1.2-.16.34-.11.63-.27.86-.47s.41-.44.53-.71c.11-.28.17-.59.17-.92h0c0-.69-.22-1.2-.67-1.55-.45-.35-1.13-.52-2.02-.52h-1.69ZM138.72,407.55v11.46h-1.55v-11.46h1.55ZM153.73,413.28h0c0,.86-.14,1.64-.41,2.35-.27.7-.66,1.3-1.15,1.81-.5.5-1.1.89-1.79,1.16-.69.27-1.46.41-2.3.41h-4.29v-11.46h4.29c.84,0,1.61.14,2.3.41s1.29.66,1.79,1.17c.49.5.88,1.1,1.15,1.81.27.71.41,1.49.41,2.34h0ZM152.13,413.28h0c0-.7-.09-1.33-.28-1.88-.19-.56-.47-1.03-.82-1.41-.35-.39-.78-.68-1.28-.88-.5-.21-1.06-.31-1.67-.31h-2.73v8.96h2.73c.61,0,1.17-.1,1.67-.31.5-.2.93-.49,1.28-.87.35-.39.63-.86.82-1.41.19-.55.28-1.18.28-1.89h0ZM162.95,417.88h0c.31,0,.59-.01.85-.04s.5-.07.73-.13.45-.13.65-.21c.21-.09.41-.18.61-.29h0v-2.53h-1.78c-.1,0-.18-.03-.24-.08-.06-.06-.09-.13-.09-.22h0v-.88h3.52v4.4c-.29.21-.59.39-.9.54-.31.16-.65.29-1,.39-.35.11-.73.18-1.14.23-.41.05-.85.08-1.32.08h0c-.83,0-1.6-.14-2.29-.43-.69-.29-1.29-.69-1.79-1.2s-.89-1.13-1.17-1.85-.42-1.51-.42-2.38h0c0-.87.14-1.67.41-2.39s.66-1.34,1.17-1.85,1.13-.91,1.85-1.2c.73-.28,1.54-.42,2.43-.42h0c.45,0,.87.03,1.26.1s.76.16,1.09.29.64.28.92.45c.29.18.55.38.79.61h0l-.44.7c-.09.15-.2.22-.35.22h0c-.09,0-.18-.03-.28-.09h0c-.13-.07-.28-.16-.45-.27-.16-.11-.36-.21-.6-.31s-.52-.18-.84-.25c-.32-.07-.7-.11-1.15-.11h0c-.65,0-1.23.11-1.75.32s-.97.51-1.34.9c-.37.39-.65.87-.84,1.43-.2.55-.3,1.18-.3,1.87h0c0,.73.1,1.37.31,1.94.21.57.5,1.06.87,1.45s.81.69,1.32.9c.51.21,1.08.31,1.7.31ZM173.42,407.55v11.46h-1.55v-11.46h1.55ZM179.29,407.55h0c.14,0,.24.02.31.05.07.03.14.1.23.21h0l6.64,8.64c0-.14-.02-.27-.03-.4v-.38h0v-8.12h1.36v11.46h-.78c-.13,0-.23-.02-.31-.06-.09-.05-.17-.12-.25-.22h0l-6.63-8.63c0,.13.02.26.03.39v.35h0v8.17h-1.36v-11.46h.8,0ZM197.7,417.88h0c.31,0,.6-.01.85-.04.26-.03.51-.07.74-.13.23-.06.44-.13.64-.21.21-.09.41-.18.61-.29h0v-2.53h-1.77c-.11,0-.19-.03-.25-.08-.06-.06-.09-.13-.09-.22h0v-.88h3.52v4.4c-.29.21-.59.39-.9.54-.31.16-.65.29-1,.39-.35.11-.73.18-1.14.23-.41.05-.85.08-1.32.08h0c-.83,0-1.6-.14-2.29-.43-.69-.29-1.29-.69-1.79-1.2s-.89-1.13-1.17-1.85-.42-1.51-.42-2.38h0c0-.87.14-1.67.41-2.39s.67-1.34,1.18-1.85,1.12-.91,1.84-1.2c.73-.28,1.54-.42,2.43-.42h0c.45,0,.88.03,1.27.1s.75.16,1.08.29.64.28.92.45c.29.18.55.38.8.61h0l-.44.7c-.09.15-.21.22-.36.22h0c-.08,0-.17-.03-.28-.09h0c-.13-.07-.28-.16-.44-.27-.17-.11-.37-.21-.61-.31-.23-.1-.51-.18-.84-.25-.32-.07-.7-.11-1.15-.11h0c-.64,0-1.22.11-1.75.32-.52.21-.96.51-1.33.9-.37.39-.66.87-.85,1.43-.2.55-.3,1.18-.3,1.87h0c0,.73.1,1.37.31,1.94.21.57.5,1.06.87,1.45s.82.69,1.33.9,1.07.31,1.69.31h0ZM213.26,407.55v11.46h-1.55v-11.46h1.55ZM219.13,407.55h0c.14,0,.24.02.31.05s.14.1.23.21h0l6.64,8.64c0-.14-.02-.27-.03-.4v-.38h0v-8.12h1.36v11.46h-.78c-.13,0-.23-.02-.31-.06-.09-.05-.17-.12-.25-.22h0l-6.63-8.63c0,.13.02.26.03.39v.35h0v8.17h-1.36v-11.46h.8,0ZM233.23,407.55h0c.14,0,.24.02.31.05s.14.1.23.21h0l6.64,8.64c-.02-.14-.03-.27-.04-.4v-.38h0v-8.12h1.36v11.46h-.79c-.12,0-.22-.02-.31-.06-.08-.05-.16-.12-.24-.22h0l-6.63-8.63c0,.13,0,.26.02.39v.35h0v8.17h-1.36v-11.46h.81ZM257.17,413.28h0c0,.86-.13,1.65-.4,2.37-.27.71-.66,1.33-1.16,1.85-.49.52-1.09.92-1.78,1.2-.7.29-1.47.43-2.31.43h0c-.85,0-1.62-.14-2.31-.43-.69-.28-1.29-.68-1.78-1.2s-.88-1.14-1.15-1.85c-.27-.72-.41-1.51-.41-2.37h0c0-.85.14-1.64.41-2.36.27-.72.66-1.34,1.15-1.86s1.09-.92,1.78-1.21c.69-.29,1.46-.43,2.31-.43h0c.84,0,1.61.14,2.31.43.69.29,1.29.69,1.78,1.21.5.52.89,1.14,1.16,1.86.27.72.4,1.51.4,2.36ZM255.58,413.28h0c0-.7-.1-1.33-.29-1.89-.19-.56-.46-1.03-.81-1.42s-.78-.68-1.28-.89c-.5-.21-1.06-.32-1.68-.32h0c-.61,0-1.17.11-1.67.32-.51.21-.94.5-1.29.89s-.63.86-.82,1.42c-.19.56-.29,1.19-.29,1.89h0c0,.71.1,1.34.29,1.9.19.55.47,1.02.82,1.41s.78.68,1.29.89c.5.21,1.06.31,1.67.31h0c.62,0,1.18-.1,1.68-.31s.93-.5,1.28-.89.62-.86.81-1.41c.19-.56.29-1.19.29-1.9ZM264.22,419.01l-4.67-11.46h1.24c.14,0,.25.03.34.1.08.07.14.16.19.27h0l3.24,8.08c.07.19.14.39.2.6s.12.43.18.66h0c.05-.23.1-.45.16-.66.05-.21.12-.41.19-.6h0l3.23-8.08c.03-.09.1-.18.19-.26.09-.07.21-.11.34-.11h1.24l-4.67,11.46h-1.4,0ZM277.52,407.55l4.58,11.46h-1.2c-.14,0-.25-.03-.33-.1-.09-.07-.15-.16-.2-.27h0l-1.07-2.76h-5.14l-1.07,2.76c-.04.1-.11.19-.2.26-.09.07-.2.11-.33.11h-1.2l4.58-11.46h1.58ZM276.39,410.1l-1.8,4.66h4.28l-1.8-4.67c-.12-.29-.23-.65-.34-1.08h0c-.06.22-.12.42-.18.61-.05.18-.11.34-.16.48h0ZM283.33,407.55h8.97v1.3h-3.7v10.16h-1.55v-10.16h-3.72v-1.3ZM297.77,407.55v11.46h-1.55v-11.46h1.55ZM313.49,413.28h0c0,.86-.13,1.65-.4,2.37-.27.71-.66,1.33-1.16,1.85-.49.52-1.09.92-1.78,1.2-.7.29-1.47.43-2.31.43h0c-.85,0-1.62-.14-2.31-.43-.69-.28-1.29-.68-1.78-1.2-.49-.52-.88-1.14-1.15-1.85-.27-.72-.41-1.51-.41-2.37h0c0-.85.14-1.64.41-2.36.27-.72.66-1.34,1.15-1.86s1.09-.92,1.78-1.21c.69-.29,1.46-.43,2.31-.43h0c.84,0,1.61.14,2.31.43.69.29,1.29.69,1.78,1.21.5.52.89,1.14,1.16,1.86.27.72.4,1.51.4,2.36ZM311.9,413.28h0c0-.7-.1-1.33-.29-1.89-.19-.56-.46-1.03-.81-1.42s-.78-.68-1.28-.89c-.5-.21-1.06-.32-1.68-.32h0c-.61,0-1.17.11-1.67.32-.51.21-.94.5-1.29.89s-.63.86-.82,1.42c-.19.56-.29,1.19-.29,1.89h0c0,.71.1,1.34.29,1.9.19.55.47,1.02.82,1.41s.78.68,1.29.89c.5.21,1.06.31,1.67.31h0c.62,0,1.18-.1,1.68-.31s.93-.5,1.28-.89.62-.86.81-1.41c.19-.56.29-1.19.29-1.9ZM318.41,407.55h0c.14,0,.24.02.31.05s.14.1.23.21h0l6.64,8.64c-.01-.14-.02-.27-.03-.4v-.38h0v-8.12h1.36v11.46h-.78c-.13,0-.23-.02-.31-.06-.09-.05-.17-.12-.25-.22h0l-6.63-8.63c.01.13.02.26.03.39v.35h0v8.17h-1.36v-11.46h.8-.01ZM341.65,407.55l4.58,11.46h-1.2c-.14,0-.25-.03-.34-.1-.08-.07-.14-.16-.19-.27h0l-1.07-2.76h-5.14l-1.08,2.76c-.03.1-.1.19-.19.26s-.2.11-.33.11h-1.2l4.58-11.46h1.58ZM340.52,410.1l-1.8,4.66h4.28l-1.8-4.67c-.12-.29-.24-.65-.35-1.08h0c-.05.22-.11.42-.17.61-.05.18-.11.34-.16.48h0ZM350.48,407.55h0c.14,0,.24.02.31.05s.14.1.22.21h0l6.64,8.64c-.01-.14-.02-.27-.03-.4,0-.13-.01-.26,0-.38h0v-8.12h1.36v11.46h-.78c-.12,0-.22-.02-.31-.06-.08-.05-.16-.12-.24-.22h0l-6.63-8.63c0,.13.01.26.02.39,0,.13.01.24.01.35h0v8.17h-1.36v-11.46h.8-.01ZM373.71,413.28h0c0,.86-.14,1.64-.41,2.35-.27.7-.66,1.3-1.15,1.81-.49.5-1.09.89-1.78,1.16s-1.46.41-2.31.41h-4.29v-11.46h4.29c.85,0,1.62.14,2.31.41s1.29.66,1.78,1.17c.49.5.88,1.1,1.15,1.81s.41,1.49.41,2.34h0ZM372.12,413.28h0c0-.7-.1-1.33-.29-1.88-.19-.56-.47-1.03-.82-1.41-.35-.39-.77-.68-1.28-.88-.5-.21-1.06-.31-1.67-.31h-2.73v8.96h2.73c.61,0,1.17-.1,1.67-.31.51-.2.93-.49,1.28-.87.35-.39.63-.86.82-1.41s.29-1.18.29-1.89h0ZM382.91,407.55h7.06v1.26h-5.5v3.81h4.46v1.22h-4.46v3.91h5.5v1.26h-7.06v-11.46h0ZM399.85,414.87h0c.07.13.14.26.19.4.06.14.12.28.17.43h0c.05-.15.11-.29.16-.43.06-.13.13-.27.2-.41h0l3.88-7.05c.07-.12.15-.19.22-.22s.18-.04.32-.04h1.14v11.46h-1.36v-8.42c0-.11,0-.23.01-.36,0-.13.02-.26.03-.39h0l-3.93,7.16c-.13.24-.32.36-.56.36h-.23c-.24,0-.43-.12-.56-.36h0l-4.01-7.19c.01.14.02.28.03.41s.02.26.02.37h0v8.42h-1.36v-11.46h1.14c.14,0,.25.01.32.04s.15.1.22.22h0l3.96,7.06h0ZM414.47,414.72h-1.84v4.29h-1.54v-11.46h3.38c.73,0,1.36.08,1.89.25.54.17.98.41,1.33.72.35.31.62.68.79,1.12.17.43.26.92.26,1.46h0c0,.53-.09,1.02-.28,1.46-.19.45-.46.83-.82,1.15-.36.32-.81.57-1.34.75-.53.17-1.14.26-1.83.26h0ZM412.63,408.77v4.72h1.84c.44,0,.83-.06,1.17-.17.34-.12.62-.29.85-.5s.41-.46.52-.75c.12-.29.18-.62.18-.97h0c0-.73-.23-1.3-.68-1.71-.45-.41-1.13-.62-2.04-.62h-1.84ZM426.45,407.55l4.58,11.46h-1.2c-.14,0-.25-.03-.34-.1-.08-.07-.14-.16-.19-.27h0l-1.07-2.76h-5.14l-1.08,2.76c-.03.1-.1.19-.19.26s-.2.11-.33.11h-1.2l4.58-11.46h1.58ZM425.32,410.1l-1.8,4.66h4.28l-1.8-4.67c-.12-.29-.24-.65-.35-1.08h0c-.05.22-.11.42-.17.61-.05.18-.11.34-.16.48h0ZM432.25,407.55h8.98v1.3h-3.7v10.16h-1.56v-10.16h-3.72v-1.3ZM454.16,407.55v11.46h-1.56v-5.21h-6.18v5.21h-1.56v-11.46h1.56v5.11h6.18v-5.11h1.56ZM467.58,407.55l-4.21,6.9v4.56h-1.54v-4.56l-4.2-6.9h1.36c.14,0,.25.03.33.1s.15.16.21.26h0l2.62,4.45c.11.19.2.36.27.53.07.17.14.33.19.49h0c.06-.17.13-.33.2-.5.07-.16.15-.33.26-.52h0l2.62-4.45c.05-.09.11-.17.19-.25.09-.07.2-.11.33-.11h1.37Z"/>
  </g>
  <g class="st1">
    <path d="M83.77,386.51l-2.13-5.89h-11.55l-2.13,5.89h-3.65l9.58-26.33h3.99l9.54,26.33h-3.65ZM71.08,377.81h9.57l-4.78-13.38-4.79,13.38ZM98.97,386.85c-1.59,0-3.02-.27-4.29-.82-1.27-.54-2.27-1.3-3.01-2.28-.73-.97-1.14-2.09-1.21-3.36h3.57c.1,1.04.59,1.89,1.46,2.55.87.66,2.02.99,3.44.99h0c1.32,0,2.36-.29,3.12-.88.76-.58,1.14-1.31,1.14-2.2h0c0-.91-.41-1.59-1.22-2.04-.81-.44-2.06-.88-3.76-1.31h0c-1.55-.4-2.81-.81-3.78-1.23s-1.81-1.04-2.51-1.86c-.69-.83-1.04-1.91-1.04-3.25h0c0-1.07.32-2.04.95-2.93.63-.89,1.53-1.59,2.69-2.11,1.17-.52,2.5-.78,3.99-.78h0c2.31,0,4.17.58,5.59,1.75s2.18,2.76,2.28,4.79h-3.46c-.07-1.09-.51-1.96-1.31-2.62-.8-.66-1.87-.99-3.21-.99h0c-1.24,0-2.23.27-2.96.8-.74.53-1.11,1.23-1.11,2.09h0c0,.68.22,1.24.67,1.69s1,.79,1.67,1.06,1.6.57,2.79.9h0c1.5.4,2.72.8,3.65,1.19.94.39,1.74.98,2.41,1.77.67.79,1.02,1.81,1.05,3.08h0c0,1.14-.32,2.17-.95,3.08-.63.91-1.53,1.62-2.68,2.14-1.15.52-2.48.78-3.97.78h0ZM118.81,386.85c-1.6,0-3.03-.27-4.3-.82-1.27-.54-2.27-1.3-3-2.28-.73-.97-1.14-2.09-1.22-3.36h3.58c.1,1.04.59,1.89,1.46,2.55.87.66,2.02.99,3.44.99h0c1.31,0,2.35-.29,3.11-.88.76-.58,1.14-1.31,1.14-2.2h0c0-.91-.4-1.59-1.21-2.04-.81-.44-2.07-.88-3.76-1.31h0c-1.55-.4-2.81-.81-3.79-1.23-.97-.42-1.81-1.04-2.5-1.86-.7-.83-1.05-1.91-1.05-3.25h0c0-1.07.32-2.04.95-2.93.63-.89,1.53-1.59,2.7-2.11s2.5-.78,3.99-.78h0c2.31,0,4.17.58,5.59,1.75,1.41,1.17,2.17,2.76,2.28,4.79h-3.46c-.08-1.09-.52-1.96-1.31-2.62-.8-.66-1.87-.99-3.21-.99h0c-1.25,0-2.24.27-2.97.8s-1.1,1.23-1.1,2.09h0c0,.68.22,1.24.66,1.69.45.44,1.01.79,1.68,1.06s1.6.57,2.79.9h0c1.49.4,2.71.8,3.65,1.19.93.39,1.74.98,2.41,1.77.67.79,1.02,1.81,1.05,3.08h0c0,1.14-.32,2.17-.95,3.08-.63.91-1.53,1.62-2.68,2.14s-2.48.78-3.97.78h0ZM133.06,362.3c-.66,0-1.22-.23-1.68-.68-.45-.45-.68-1.01-.68-1.67h0c0-.66.23-1.22.68-1.67.46-.46,1.02-.69,1.68-.69h0c.63,0,1.17.23,1.61.69.45.45.67,1.01.67,1.67h0c0,.66-.22,1.22-.67,1.67-.44.45-.98.68-1.61.68h0ZM131.27,365.69h3.46v20.82h-3.46v-20.82ZM147.99,386.85c-1.59,0-3.02-.27-4.29-.82-1.27-.54-2.27-1.3-3.01-2.28-.73-.97-1.14-2.09-1.21-3.36h3.57c.1,1.04.59,1.89,1.46,2.55.87.66,2.02.99,3.44.99h0c1.32,0,2.36-.29,3.12-.88.76-.58,1.14-1.31,1.14-2.2h0c0-.91-.41-1.59-1.22-2.04-.81-.44-2.06-.88-3.76-1.31h0c-1.55-.4-2.81-.81-3.78-1.23s-1.81-1.04-2.51-1.86c-.69-.83-1.04-1.91-1.04-3.25h0c0-1.07.32-2.04.95-2.93.63-.89,1.53-1.59,2.69-2.11,1.17-.52,2.5-.78,3.99-.78h0c2.31,0,4.17.58,5.59,1.75s2.18,2.76,2.28,4.79h-3.46c-.07-1.09-.51-1.96-1.31-2.62s-1.87-.99-3.21-.99h0c-1.24,0-2.23.27-2.96.8-.74.53-1.11,1.23-1.11,2.09h0c0,.68.22,1.24.67,1.69.44.44,1,.79,1.67,1.06s1.6.57,2.79.9h0c1.5.4,2.72.8,3.65,1.19.94.39,1.74.98,2.41,1.77.67.79,1.02,1.81,1.05,3.08h0c0,1.14-.32,2.17-.95,3.08-.63.91-1.53,1.62-2.68,2.14s-2.48.78-3.97.78h0ZM170.11,368.54h-5.44v12.27c0,1.01.22,1.73.65,2.15.43.41,1.17.62,2.24.62h2.55v2.93h-3.12c-1.93,0-3.37-.44-4.33-1.33-.97-.89-1.45-2.34-1.45-4.37h0v-12.27h-2.69v-2.85h2.69v-5.25h3.46v5.25h5.44v2.85h0ZM172.99,376.02c0-2.13.43-3.99,1.3-5.6.86-1.61,2.04-2.86,3.55-3.75,1.51-.89,3.18-1.33,5.03-1.33h0c1.83,0,3.41.39,4.75,1.18,1.35.79,2.35,1.78,3.01,2.97h0v-3.8h3.49v20.82h-3.49v-3.88c-.69,1.22-1.71,2.23-3.06,3.03-1.36.79-2.94,1.19-4.73,1.19h0c-1.85,0-3.53-.46-5.02-1.37s-2.67-2.18-3.53-3.83c-.87-1.65-1.3-3.52-1.3-5.63h0ZM190.63,376.06c0-1.57-.32-2.94-.95-4.1-.63-1.17-1.49-2.06-2.57-2.68-1.07-.62-2.26-.93-3.55-.93h0c-1.29,0-2.47.3-3.54.91-1.06.61-1.91,1.49-2.54,2.66-.63,1.17-.95,2.53-.95,4.1h0c0,1.6.32,2.99.95,4.16.63,1.18,1.48,2.08,2.54,2.7,1.07.62,2.25.93,3.54.93h0c1.29,0,2.48-.31,3.55-.93,1.08-.62,1.94-1.52,2.57-2.7.63-1.17.95-2.55.95-4.12h0ZM210.12,365.31c2.53,0,4.59.76,6.16,2.29s2.35,3.75,2.35,6.64h0v12.27h-3.42v-11.78c0-2.08-.52-3.67-1.56-4.77-1.03-1.1-2.45-1.65-4.25-1.65h0c-1.83,0-3.28.57-4.35,1.71-1.08,1.14-1.62,2.8-1.62,4.98h0v11.51h-3.46v-20.82h3.46v2.96c.69-1.07,1.62-1.89,2.79-2.47,1.18-.58,2.48-.87,3.9-.87h0ZM233.95,368.54h-5.44v12.27c0,1.01.22,1.73.65,2.15.43.41,1.17.62,2.24.62h2.55v2.93h-3.12c-1.93,0-3.37-.44-4.33-1.33-.97-.89-1.45-2.34-1.45-4.37h0v-12.27h-2.69v-2.85h2.69v-5.25h3.46v5.25h5.44v2.85h0ZM245.5,386.85c-1.6,0-3.03-.27-4.3-.82-1.27-.54-2.27-1.3-3-2.28-.73-.97-1.14-2.09-1.21-3.36h3.57c.1,1.04.59,1.89,1.46,2.55.87.66,2.02.99,3.44.99h0c1.32,0,2.36-.29,3.12-.88.76-.58,1.14-1.31,1.14-2.2h0c0-.91-.41-1.59-1.22-2.04-.81-.44-2.07-.88-3.76-1.31h0c-1.55-.4-2.81-.81-3.78-1.23-.98-.42-1.82-1.04-2.51-1.86-.7-.83-1.05-1.91-1.05-3.25h0c0-1.07.32-2.04.95-2.93.63-.89,1.53-1.59,2.7-2.11s2.5-.78,3.99-.78h0c2.31,0,4.17.58,5.59,1.75s2.18,2.76,2.28,4.79h-3.46c-.07-1.09-.51-1.96-1.31-2.62s-1.87-.99-3.21-.99h0c-1.24,0-2.23.27-2.97.8-.73.53-1.1,1.23-1.1,2.09h0c0,.68.22,1.24.67,1.69.44.44,1,.79,1.67,1.06s1.6.57,2.79.9h0c1.49.4,2.71.8,3.65,1.19s1.74.98,2.41,1.77c.67.79,1.02,1.81,1.05,3.08h0c0,1.14-.32,2.17-.95,3.08-.63.91-1.53,1.62-2.68,2.14s-2.48.78-3.97.78h0ZM266.47,360.02h17.94v2.82h-7.22v23.67h-3.46v-23.67h-7.26v-2.82ZM307.67,375.3c0,.66-.04,1.36-.12,2.09h-16.64c.13,2.05.83,3.66,2.11,4.81s2.83,1.73,4.65,1.73h0c1.49,0,2.74-.35,3.74-1.05,1.01-.69,1.71-1.62,2.11-2.79h3.73c-.56,2-1.68,3.63-3.35,4.88s-3.74,1.88-6.23,1.88h0c-1.97,0-3.74-.44-5.3-1.33s-2.78-2.15-3.67-3.78-1.33-3.53-1.33-5.68h0c0-2.15.43-4.04,1.3-5.66.86-1.62,2.07-2.87,3.62-3.75,1.56-.87,3.35-1.31,5.38-1.31h0c1.98,0,3.73.43,5.25,1.3,1.52.86,2.69,2.04,3.51,3.55.83,1.51,1.24,3.21,1.24,5.11h0ZM304.09,374.58c0-1.32-.29-2.45-.87-3.4-.58-.95-1.37-1.68-2.38-2.17-1-.49-2.11-.74-3.32-.74h0c-1.75,0-3.24.56-4.47,1.67-1.23,1.11-1.93,2.66-2.1,4.64h13.14ZM310.93,376.06c0-2.15.43-4.03,1.3-5.64.86-1.61,2.06-2.86,3.59-3.75s3.29-1.33,5.26-1.33h0c2.56,0,4.67.62,6.33,1.87,1.66,1.24,2.75,2.96,3.28,5.16h-3.72c-.35-1.27-1.04-2.27-2.07-3s-2.3-1.1-3.82-1.1h0c-1.97,0-3.57.68-4.79,2.03-1.21,1.36-1.82,3.28-1.82,5.76h0c0,2.51.61,4.44,1.82,5.81,1.22,1.37,2.82,2.06,4.79,2.06h0c1.52,0,2.79-.36,3.8-1.07,1.01-.71,1.71-1.72,2.09-3.04h3.72c-.55,2.13-1.67,3.83-3.34,5.11-1.67,1.28-3.76,1.92-6.27,1.92h0c-1.97,0-3.73-.44-5.26-1.33-1.53-.89-2.73-2.14-3.59-3.76-.87-1.62-1.3-3.52-1.3-5.7h0ZM345.63,365.31c1.57,0,2.98.33,4.25,1s2.26,1.68,2.99,3.02c.72,1.35,1.08,2.98,1.08,4.91h0v12.27h-3.42v-11.78c0-2.08-.52-3.67-1.56-4.77-1.04-1.1-2.46-1.65-4.25-1.65h0c-1.83,0-3.28.57-4.36,1.71-1.07,1.14-1.61,2.8-1.61,4.98h0v11.51h-3.46v-28.12h3.46v10.26c.69-1.07,1.63-1.89,2.83-2.47,1.21-.58,2.56-.87,4.05-.87h0ZM369.76,365.31c2.53,0,4.58.76,6.15,2.29s2.36,3.75,2.36,6.64h0v12.27h-3.42v-11.78c0-2.08-.52-3.67-1.56-4.77-1.04-1.1-2.46-1.65-4.25-1.65h0c-1.83,0-3.28.57-4.36,1.71-1.07,1.14-1.61,2.8-1.61,4.98h0v11.51h-3.46v-20.82h3.46v2.96c.69-1.07,1.62-1.89,2.79-2.47,1.18-.58,2.48-.87,3.9-.87h0ZM393.01,386.85c-1.95,0-3.71-.44-5.3-1.33-1.58-.89-2.82-2.15-3.72-3.78s-1.35-3.53-1.35-5.68h0c0-2.13.46-4.01,1.39-5.64.92-1.63,2.18-2.89,3.78-3.77,1.59-.87,3.38-1.31,5.36-1.31h0c1.97,0,3.76.44,5.35,1.31,1.6.88,2.86,2.13,3.78,3.75.93,1.62,1.39,3.51,1.39,5.66h0c0,2.15-.47,4.05-1.42,5.68s-2.24,2.89-3.86,3.78-3.42,1.33-5.4,1.33h0ZM393.01,383.81c1.25,0,2.41-.29,3.5-.87,1.09-.59,1.97-1.46,2.64-2.62.67-1.17,1.01-2.59,1.01-4.26h0c0-1.67-.33-3.09-.99-4.26-.66-1.16-1.52-2.03-2.58-2.6-1.07-.57-2.22-.85-3.46-.85h0c-1.27,0-2.43.28-3.48.85-1.05.57-1.9,1.44-2.53,2.6-.63,1.17-.95,2.59-.95,4.26h0c0,1.7.31,3.13.93,4.29.63,1.17,1.46,2.04,2.49,2.61,1.04.57,2.18.85,3.42.85h0ZM408.25,358.39h3.46v28.12h-3.46v-28.12ZM426.68,386.85c-1.95,0-3.71-.44-5.3-1.33-1.58-.89-2.82-2.15-3.72-3.78s-1.35-3.53-1.35-5.68h0c0-2.13.46-4.01,1.38-5.64.93-1.63,2.19-2.89,3.79-3.77,1.59-.87,3.38-1.31,5.35-1.31h0c1.98,0,3.77.44,5.36,1.31,1.6.88,2.86,2.13,3.78,3.75.93,1.62,1.39,3.51,1.39,5.66h0c0,2.15-.48,4.05-1.43,5.68-.95,1.63-2.23,2.89-3.85,3.78-1.62.89-3.42,1.33-5.4,1.33h0ZM426.68,383.81c1.24,0,2.41-.29,3.5-.87,1.09-.59,1.97-1.46,2.64-2.62.67-1.17,1.01-2.59,1.01-4.26h0c0-1.67-.33-3.09-.99-4.26-.66-1.16-1.52-2.03-2.59-2.6-1.06-.57-2.21-.85-3.45-.85h0c-1.27,0-2.43.28-3.48.85-1.05.57-1.9,1.44-2.53,2.6-.63,1.17-.95,2.59-.95,4.26h0c0,1.7.31,3.13.93,4.29.62,1.17,1.45,2.04,2.49,2.61,1.04.57,2.18.85,3.42.85h0ZM450.51,365.34c1.8,0,3.38.39,4.73,1.18s2.36,1.78,3.02,2.97h0v-3.8h3.5v21.28c0,1.9-.41,3.59-1.22,5.07s-1.97,2.64-3.48,3.48c-1.51.83-3.26,1.25-5.26,1.25h0c-2.73,0-5.01-.65-6.84-1.94s-2.9-3.05-3.23-5.28h3.42c.38,1.27,1.17,2.29,2.36,3.06,1.19.77,2.62,1.16,4.29,1.16h0c1.9,0,3.45-.6,4.65-1.79,1.21-1.19,1.81-2.86,1.81-5.01h0v-4.37c-.69,1.21-1.7,2.23-3.04,3.04s-2.91,1.21-4.71,1.21h0c-1.85,0-3.53-.46-5.04-1.37s-2.69-2.18-3.55-3.83-1.29-3.52-1.29-5.63h0c0-2.13.43-3.99,1.29-5.6.86-1.61,2.04-2.86,3.55-3.75,1.51-.89,3.19-1.33,5.04-1.33h0ZM458.26,376.06c0-1.57-.32-2.94-.95-4.1-.63-1.17-1.49-2.06-2.57-2.68-1.07-.62-2.26-.93-3.55-.93h0c-1.29,0-2.47.3-3.53.91-1.07.61-1.92,1.49-2.55,2.66-.63,1.17-.95,2.53-.95,4.1h0c0,1.6.32,2.99.95,4.16.63,1.18,1.48,2.08,2.55,2.7,1.06.62,2.24.93,3.53.93h0c1.29,0,2.48-.31,3.55-.93,1.08-.62,1.94-1.52,2.57-2.7.63-1.17.95-2.55.95-4.12h0ZM469.39,362.3c-.65,0-1.21-.23-1.67-.68-.45-.45-.68-1.01-.68-1.67h0c0-.66.23-1.22.68-1.67.46-.46,1.02-.69,1.67-.69h0c.63,0,1.17.23,1.62.69.44.45.66,1.01.66,1.67h0c0,.66-.22,1.22-.66,1.67-.45.45-.99.68-1.62.68h0ZM467.61,365.69h3.46v20.82h-3.46v-20.82ZM495.96,375.3c0,.66-.04,1.36-.12,2.09h-16.64c.13,2.05.83,3.66,2.11,4.81s2.83,1.73,4.65,1.73h0c1.49,0,2.74-.35,3.74-1.05,1.01-.69,1.71-1.62,2.11-2.79h3.73c-.56,2-1.68,3.63-3.35,4.88s-3.74,1.88-6.23,1.88h0c-1.97,0-3.74-.44-5.3-1.33s-2.78-2.15-3.67-3.78-1.33-3.53-1.33-5.68h0c0-2.15.43-4.04,1.3-5.66.86-1.62,2.07-2.87,3.62-3.75,1.56-.87,3.35-1.31,5.38-1.31h0c1.98,0,3.73.43,5.25,1.3,1.52.86,2.69,2.04,3.51,3.55.83,1.51,1.24,3.21,1.24,5.11h0ZM492.38,374.58c0-1.32-.29-2.45-.87-3.4-.58-.95-1.37-1.68-2.38-2.17-1-.49-2.11-.74-3.32-.74h0c-1.75,0-3.24.56-4.47,1.67-1.23,1.11-1.93,2.66-2.1,4.64h13.14ZM507.89,386.85c-1.6,0-3.03-.27-4.3-.82-1.27-.54-2.27-1.3-3-2.28-.73-.97-1.14-2.09-1.21-3.36h3.57c.1,1.04.59,1.89,1.46,2.55.87.66,2.02.99,3.44.99h0c1.32,0,2.36-.29,3.12-.88.76-.58,1.14-1.31,1.14-2.2h0c0-.91-.41-1.59-1.22-2.04-.81-.44-2.07-.88-3.76-1.31h0c-1.55-.4-2.81-.81-3.78-1.23-.98-.42-1.82-1.04-2.51-1.86-.7-.83-1.05-1.91-1.05-3.25h0c0-1.07.32-2.04.95-2.93.63-.89,1.53-1.59,2.7-2.11s2.5-.78,3.99-.78h0c2.31,0,4.17.58,5.59,1.75,1.42,1.17,2.18,2.76,2.28,4.79h-3.46c-.07-1.09-.51-1.96-1.31-2.62s-1.87-.99-3.21-.99h0c-1.24,0-2.23.27-2.97.8-.73.53-1.1,1.23-1.1,2.09h0c0,.68.22,1.24.67,1.69s1,.79,1.67,1.06,1.6.57,2.79.9h0c1.49.4,2.71.8,3.65,1.19s1.74.98,2.41,1.77c.67.79,1.02,1.81,1.05,3.08h0c0,1.14-.32,2.17-.95,3.08-.63.91-1.53,1.62-2.68,2.14s-2.48.78-3.97.78h0Z"/>
  </g>
</svg>